<svg xmlns="http://www.w3.org/2000/svg" width="85.142" height="103.557" viewBox="0 0 85.142 103.557">
  <g id="Group_1305" data-name="Group 1305" transform="translate(58.476 103.558) rotate(-150)">
    <path id="Path_1169" data-name="Path 1169" d="M942.851,2415.55a6.315,6.315,0,0,1,3.329,1.7c0-.071-.017.126-.027.26a1.031,1.031,0,0,0,.007.223c.689,4.96,2.759,9.641,13.222,18.551C949.178,2431.5,944.4,2421.545,942.851,2415.55Z" transform="translate(-902.834 -2381.157)" fill="#5b6a78"/>
    <path id="Path_1170" data-name="Path 1170" d="M937.88,2396.679c-.982.3-2.281-.013-3.262.292a22.454,22.454,0,0,0-7.781-10.111c-7.111-5.447-15.431-3.26-19.066,4.931a39.082,39.082,0,0,0-2.856,12.026c-1.019,9.988.18,20.055,1.116,29.988l-.146.423a89.46,89.46,0,0,1-3.3-23.621c-.094-4.72-.181-9.418.839-14.069a29.141,29.141,0,0,1,2.538-7.461c4.261-8.073,13.379-10.557,21.163-5.709C932.015,2386.414,935.406,2391.619,937.88,2396.679Z" transform="translate(-902.529 -2380.895)" fill="#5b6a78"/>
    <path id="Path_1171" data-name="Path 1171" d="M949.665,2395.415c8.674-1.669,15.15,2.948,21.575,7.614a56.481,56.481,0,0,1,6.348,6.414c.54.63,1.273,1.228.574,2.19-3.731.736-7.515,1.156-11.043,2.822-4.809,2.272-9.349,4.756-11.649,9.926-1.442.378-1.94-.845-2.693-1.609-2.219-2.7-6.731-5.712-6.821-5.831a7.457,7.457,0,0,0-3.133-1.546c-1.522-.272-2.158-1.931-3.612-2.309,1.432-.474,1.92-1.638,2.286-2.97a28.991,28.991,0,0,1,7.084-12.3C949.174,2397.188,950.107,2396.571,949.665,2395.415Z" transform="translate(-902.807 -2381.003)" fill="#3c2120"/>
    <path id="Path_1172" data-name="Path 1172" d="M949.716,2395.415c8.674-1.669,15.149,2.948,21.575,7.614a56.492,56.492,0,0,1,6.349,6.414c.54.63,1.273,1.228.574,2.19a80.913,80.913,0,0,0-8.23,1.744c-2.639-5.68-17.278-11.8-24.08-12.269a33.054,33.054,0,0,1,2.729-3.291C949.225,2397.188,950.158,2396.571,949.716,2395.415Z" transform="translate(-902.857 -2381.003)" fill="#281918" opacity="0.57"/>
    <path id="Path_1173" data-name="Path 1173" d="M949.46,2395.417c.442,1.156-.491,1.772-1.084,2.4a28.989,28.989,0,0,0-7.084,12.3c-.366,1.332-.854,2.5-2.286,2.971-9.323-1.184-16.928,2.01-23.051,9.016a3.774,3.774,0,0,1-.938.579c-1.424-1.925-3.2-3.694-2.9-6.4a24.766,24.766,0,0,0,1.53-2.341c4.471-8.8,11.958-13.829,21.045-16.865C935.671,2396.774,945.458,2394.716,949.46,2395.417Z" transform="translate(-902.602 -2381.005)" fill="#4f2e29"/>
    <path id="Path_1174" data-name="Path 1174" d="M949.46,2395.417c.442,1.156-.491,1.772-1.084,2.4a33.18,33.18,0,0,0-2.769,3.346c-12.066-2.35-27.283,10.106-32.944,18.123a5.372,5.372,0,0,1-.549-3,24.814,24.814,0,0,0,1.53-2.341c4.471-8.8,11.958-13.829,21.045-16.865C935.671,2396.774,945.458,2394.716,949.46,2395.417Z" transform="translate(-902.602 -2381.005)" fill="#392321" opacity="0.45"/>
    <path id="Path_1175" data-name="Path 1175" d="M985.452,2425.043c-9.107-1.787-18.517,1.716-25.5,7.914-1.984-3.15-3.288-6.476-4.357-8.449,2.3-5.171,6.84-7.654,11.649-9.926,3.528-1.667,7.312-2.086,11.043-2.822C980.9,2416.068,983.756,2420.241,985.452,2425.043Z" transform="translate(-902.93 -2381.129)" fill="#4f2e29"/>
    <path id="Path_1176" data-name="Path 1176" d="M905.8,2433.886v.054c2.324-1.307,2.731-3.52,3-5.923.446-4.023.522-8.185,3.265-11.573-.294,2.7,1.479,4.472,2.9,6.4a54.629,54.629,0,0,0-4.16,10.116,3.906,3.906,0,0,1-2.111,2.542C907.024,2436.323,905.708,2436.325,905.8,2433.886Z" transform="translate(-902.554 -2381.165)" fill="#88949e"/>
    <path id="Path_1177" data-name="Path 1177" d="M905.8,2433.886v.054c2.324-1.307,2.731-3.52,3-5.923.446-4.023.522-8.185,3.265-11.573a5.417,5.417,0,0,0,.622,3.149c-1.66.884-1.82,8.658-2.536,12.28-.512,2.589-3.519,4.356-4.006,3.707A2.662,2.662,0,0,1,905.8,2433.886Z" transform="translate(-902.554 -2381.165)" fill="#5b6a78"/>
    <path id="Path_1178" data-name="Path 1178" d="M985.58,2425.544l-25.61,7.489s-1.4-2.391-1.868-3.337c0,0,12.4-10.63,26.268-7.29A22.183,22.183,0,0,1,985.58,2425.544Z" transform="translate(-902.949 -2381.205)" fill="#030504" opacity="0.26"/>
    <path id="Path_1179" data-name="Path 1179" d="M985.48,2425.14c3.772,2.615,6.8,10.6,5.618,15.089-.636,2.43-2.447,3.979-4.518,5.19a31.012,31.012,0,0,1-16.406,4.343c-5.354-.088-7.529-1.834-9.339-7.271a36.754,36.754,0,0,1-1.5-8.305,4.143,4.143,0,0,1,1.59-2.8C968.551,2425.277,976.373,2423.353,985.48,2425.14Zm-7.891,20.62c3.387-.7,6.622-.957,8.956-3.351,1.7-1.742,1.326-3.557-.828-4.448-4.484-1.855-15.229.805-18.429,4.564-1.975,2.319-1.27,4.2,1.817,4.737C972.134,2447.786,974.909,2446.755,977.589,2445.76Z" transform="translate(-902.959 -2381.225)" fill="#88949e"/>
    <path id="Path_1180" data-name="Path 1180" d="M978.527,2448.864a24.844,24.844,0,0,1-11.679.605c-4-.8-4.718-3.543-2.219-6.674,4.05-5.072,17.86-8.482,23.687-5.848,2.8,1.265,3.583,3.691,1.428,6.038C986.784,2446.208,982.8,2447.617,978.527,2448.864Z" transform="translate(-902.988 -2381.312)" fill="#b5b4b3"/>
    <path id="Path_1181" data-name="Path 1181" d="M978.038,2446.892a19.655,19.655,0,0,1-8.88.469c-3.088-.535-3.792-2.418-1.817-4.738,3.2-3.758,13.945-6.419,18.429-4.563,2.154.891,2.526,2.706.828,4.448C984.264,2444.9,981.368,2445.927,978.038,2446.892Z" transform="translate(-903.011 -2381.323)" fill="#5b6a78"/>
    <path id="Path_1182" data-name="Path 1182" d="M978.038,2446.9a19.655,19.655,0,0,1-8.88.469c-3.088-.534-3.792-2.418-1.817-4.737,3.595,1.663,12.678,1.9,18.429-4.563,2.154.89,2.526,2.706.828,4.447C984.264,2444.906,981.368,2445.932,978.038,2446.9Z" transform="translate(-903.011 -2381.328)" fill="#404549"/>
  </g>
</svg>
