<svg id="Group_535" data-name="Group 535" xmlns="http://www.w3.org/2000/svg" width="100.025" height="84.806" viewBox="0 0 100.025 84.806">
  <rect id="Rectangle_127" data-name="Rectangle 127" width="6.971" height="98.529" rx="1.941" transform="translate(9.015 80.557) rotate(-137.847)" fill="#34110c"/>
  <ellipse id="Ellipse_63" data-name="Ellipse 63" cx="6.507" cy="3.486" rx="6.507" ry="3.486" transform="translate(0 80.128) rotate(-47.847)" fill="#34110c"/>
  <path id="Path_637" data-name="Path 637" d="M974.538,2089.4a5.425,5.425,0,0,0,2.069-.667,11.531,11.531,0,0,0,2.516-1.847l64.557-71.315a2.215,2.215,0,0,0,.182-2.753Z" transform="translate(-970.032 -2006.41)" fill="#51413d"/>
  <ellipse id="Ellipse_64" data-name="Ellipse 64" cx="2.03" cy="6.089" rx="2.03" ry="6.089" transform="matrix(0.671, -0.741, 0.741, 0.671, 1.748, 74.318)" fill="#34110c"/>
  <ellipse id="Ellipse_65" data-name="Ellipse 65" cx="2.03" cy="6.089" rx="2.03" ry="6.089" transform="matrix(0.671, -0.741, 0.741, 0.671, 28.779, 44.457)" fill="#34110c"/>
  <path id="Path_638" data-name="Path 638" d="M1012.789,2063c.148.372-.245,1.512,0,1.7,1.446,1.114,2.477,1.34,2.913.858.511-.563-.447-2.261-2.138-3.792C1012.065,2060.555,1012.207,2061.535,1012.789,2063Z" transform="translate(-976.845 -2015.125)" fill="#51413d"/>
  <path id="Path_639" data-name="Path 639" d="M979.822,2099.409c.285.59-.119,1.537.576,2.106.723.557,1.783,1.026,2.237.561.532-.544-.361-2.277-1.993-3.87C979.191,2096.933,979.133,2097.987,979.822,2099.409Z" transform="translate(-970.907 -2021.681)" fill="#51413d"/>
  <path id="Path_640" data-name="Path 640" d="M981.36,2100.271c.155.319-.064.834.312,1.141.392.3.966.556,1.212.3.288-.3-.2-1.233-1.08-2.1C981.018,2098.931,980.987,2099.5,981.36,2100.271Z" transform="translate(-971.219 -2021.982)" fill="#5f4c47"/>
  <ellipse id="Ellipse_66" data-name="Ellipse 66" cx="2.03" cy="6.089" rx="2.03" ry="6.089" transform="matrix(0.671, -0.741, 0.741, 0.671, 28.78, 44.457)" fill="#34110c"/>
  <path id="Path_641" data-name="Path 641" d="M1012.79,2062.992c.285.589-.12,1.537.576,2.1.723.558,1.783,1.027,2.237.561.531-.543-.361-2.276-1.993-3.869C1012.159,2060.516,1012.1,2061.569,1012.79,2062.992Z" transform="translate(-976.842 -2015.124)" fill="#51413d"/>
  <path id="Path_642" data-name="Path 642" d="M1014.328,2063.855c.155.319-.065.833.312,1.141s.965.556,1.212.3c.287-.295-.2-1.233-1.08-2.1C1013.986,2062.514,1013.955,2063.085,1014.328,2063.855Z" transform="translate(-977.154 -2015.426)" fill="#5f4c47"/>
  <path id="Path_643" data-name="Path 643" d="M1077.821,2015.041c-5.782,6.919-17.643,4.717-17.643,4.717s4.2,10.6-7.125,9.486c-3.666-.728-10.335-4.742-13.252-12.613-.785-1.672-1.485-5.5,1.712-6.725l-.385-4.884-19.463,5.573s3.122,9.549-.5,16.48l6.373-1.963s.341-6.378,5.444-3.013c0,0,10.7,7.8,7.609,20.681,0,0-2.4,6.81-7.633,7.508a24.812,24.812,0,0,1-4.939,19.769c9.109-.073,25.553-9.249,37.016-21.914C1078.84,2032.888,1079.439,2019.035,1077.821,2015.041Z" transform="translate(-978.427 -2005.007)" fill="#34110c"/>
  <path id="Path_644" data-name="Path 644" d="M1068.088,2020.068a26.767,26.767,0,0,1-4.905-.328s4.095,10.337-6.711,9.523a4.939,4.939,0,0,1-.8-.124c-3.732-.922-10.045-4.926-12.861-12.526-.785-1.672-1.485-5.5,1.712-6.725l-.386-4.884-3.955,1.132s-5.816,5.4.651,15.738c1.584,2.533,10.922,14.979,20.113,11.78A11.48,11.48,0,0,0,1068.088,2020.068Z" transform="translate(-981.417 -2005.004)" fill="#6c5752"/>
  <path id="Path_645" data-name="Path 645" d="M1079.326,2017.241a11.865,11.865,0,0,1-2.229,2.056c-.929,25.991-30.45,46.681-45.45,49.78a25.68,25.68,0,0,1-2.122,3.178c9.109-.073,25.552-9.25,37.016-21.915C1080.345,2035.088,1080.944,2021.235,1079.326,2017.241Z" transform="translate(-979.932 -2007.207)" fill="#51413d"/>
  <path id="Path_646" data-name="Path 646" d="M1053.259,2009.809a2.143,2.143,0,0,1,2.5.334l1.873,1.7a2.069,2.069,0,0,1,.605,2.385c-.321.614-2.008.658-2.989-.269l-1.6-1.519C1052.709,2011.555,1052.835,2010.028,1053.259,2009.809Z" transform="translate(-984.147 -2005.823)" fill="#6c5752"/>
  <path id="Path_647" data-name="Path 647" d="M1056.3,2010.273l1.873,1.7a2.069,2.069,0,0,1,.605,2.385,1.234,1.234,0,0,1-1.1.447C1057.058,2014.805,1055.131,2011.906,1056.3,2010.273Z" transform="translate(-984.685 -2005.953)" fill="#775f5a"/>
  <rect id="Rectangle_128" data-name="Rectangle 128" width="1.287" height="12.812" rx="0.459" transform="matrix(0.943, 0.334, -0.334, 0.943, 61.641, 12.28)" fill="#240e0c"/>
  <path id="Path_648" data-name="Path 648" d="M1039.713,2032.314h0c-.334-.118.08.052.2-.282l3.851-10.862c.427-1-.19-.988.233-.931h0a.646.646,0,0,1,.391.822l-3.851,10.862A.646.646,0,0,1,1039.713,2032.314Z" transform="translate(-981.743 -2007.743)" fill="#412220"/>
  <rect id="Rectangle_129" data-name="Rectangle 129" width="1.241" height="12.347" rx="0.442" transform="matrix(-0.323, -0.947, 0.947, -0.323, 54.736, 21.405)" fill="#240e0c"/>
  <path id="Path_649" data-name="Path 649" d="M1035.55,2029.485h0c-.11-.323.008.091.331-.019l10.514-3.581c1.014-.277.656-.743.844-.381h0a.623.623,0,0,1-.387.787l-10.515,3.581A.623.623,0,0,1,1035.55,2029.485Z" transform="translate(-981.009 -2008.671)" fill="#412220"/>
  <path id="Path_650" data-name="Path 650" d="M1044.9,2021.214c.429-.916-.139-.944.246-.856h0" transform="translate(-982.7 -2007.762)" fill="#412220"/>
</svg>
