<svg xmlns="http://www.w3.org/2000/svg" width="90.375" height="64.303" viewBox="0 0 90.375 64.303">
  <g id="Group_1327" data-name="Group 1327" transform="matrix(0.996, -0.087, 0.087, 0.996, -406.739, 27.231)">
    <path id="Path_406" data-name="Path 406" d="M492.866,34.857l.218-.128-.145,11.126-.254,19.525.472-.087.472.087-.254-19.525-.145-11.126.218.128-.218-.128-.074-5.66-.073,5.66Z" transform="translate(-42.424 -6.495)" fill="#ffa740"/>
    <path id="Path_407" data-name="Path 407" d="M444.512,71.1l-.01.025q.051-.127.1-.254Z" transform="translate(-18.596 -27.169)" fill="#1c1610"/>
    <path id="Path_408" data-name="Path 408" d="M544.813,77.277c.041.136.081.272.12.408v0Q544.876,77.481,544.813,77.277Z" transform="translate(-68.202 -30.336)" fill="#1c1610"/>
    <path id="Path_409" data-name="Path 409" d="M447.109,61.4c.843-1.772,1.651-3.236,2.155-4.11C448.76,58.16,447.952,59.624,447.109,61.4Z" transform="translate(-19.885 -20.45)" fill="#1c1610"/>
    <path id="Path_410" data-name="Path 410" d="M452.752,72.914c-.037.112-.073.227-.11.34.047-.144.093-.287.14-.429C452.772,72.855,452.762,72.884,452.752,72.914Z" transform="translate(-22.621 -28.134)" fill="#1c1610"/>
    <path id="Path_411" data-name="Path 411" d="M442.187,77.687v0c.039-.136.079-.272.12-.408Q442.246,77.482,442.187,77.687Z" transform="translate(-17.451 -30.336)" fill="#1c1610"/>
    <path id="Path_412" data-name="Path 412" d="M442.073,64.61c.079-.183.157-.361.235-.537Q442.191,64.336,442.073,64.61Z" transform="translate(-17.395 -23.806)" fill="#1c1610"/>
    <path id="Path_413" data-name="Path 413" d="M442.592,63.438c.079-.178.158-.352.236-.522C442.75,63.086,442.671,63.259,442.592,63.438Z" transform="translate(-17.651 -23.234)" fill="#1c1610"/>
    <path id="Path_414" data-name="Path 414" d="M441.764,65.32c-.06.141-.12.282-.18.426l-.056.135C441.607,65.691,441.685,65.5,441.764,65.32Z" transform="translate(-17.125 -24.423)" fill="#1c1610"/>
    <path id="Path_415" data-name="Path 415" d="M443.106,62.284q.127-.278.251-.539C443.275,61.918,443.191,62.1,443.106,62.284Z" transform="translate(-17.905 -22.655)" fill="#1c1610"/>
    <path id="Path_416" data-name="Path 416" d="M437.6,78.8c.005-.027.011-.054.016-.081l-.012.059Z" transform="translate(-15.185 -31.051)" fill="#1c1610"/>
    <path id="Path_417" data-name="Path 417" d="M534.319,72.825c.047.142.094.286.14.429-.036-.113-.073-.228-.11-.34Z" transform="translate(-63.012 -28.134)" fill="#1c1610"/>
    <path id="Path_418" data-name="Path 418" d="M501.562,46.447l-.014-.014.014.015Z" transform="translate(-46.807 -15.082)" fill="#1c1610"/>
    <path id="Path_419" data-name="Path 419" d="M538.021,61.4c-.843-1.773-1.651-3.237-2.155-4.11C536.37,58.161,537.179,59.625,538.021,61.4Z" transform="translate(-63.778 -20.45)" fill="#1c1610"/>
    <path id="Path_420" data-name="Path 420" d="M485.663,46.447h0l.014-.015Z" transform="translate(-38.951 -15.082)" fill="#1c1610"/>
    <path id="Path_421" data-name="Path 421" d="M543.887,62.284c-.085-.185-.169-.365-.251-.539Q543.76,62.006,543.887,62.284Z" transform="translate(-67.62 -22.655)" fill="#1c1610"/>
    <path id="Path_422" data-name="Path 422" d="M544.416,63.438c-.079-.178-.158-.352-.236-.522C544.258,63.086,544.336,63.259,544.416,63.438Z" transform="translate(-67.889 -23.234)" fill="#1c1610"/>
    <path id="Path_423" data-name="Path 423" d="M545.243,65.319c.079.184.158.371.237.562l-.056-.135C545.363,65.6,545.3,65.46,545.243,65.319Z" transform="translate(-68.415 -24.422)" fill="#1c1610"/>
    <path id="Path_424" data-name="Path 424" d="M544.935,64.61q-.117-.274-.234-.537C544.779,64.249,544.857,64.427,544.935,64.61Z" transform="translate(-68.147 -23.806)" fill="#1c1610"/>
    <path id="Path_425" data-name="Path 425" d="M549.618,78.8l0-.022c0-.02-.008-.039-.012-.059C549.607,78.75,549.613,78.777,549.618,78.8Z" transform="translate(-70.57 -31.051)" fill="#1c1610"/>
    <path id="Path_426" data-name="Path 426" d="M542.535,70.873l.1.254-.01-.025Z" transform="translate(-67.076 -27.169)" fill="#1c1610"/>
    <path id="Path_427" data-name="Path 427" d="M446.833,56.423l0,0c-.5.874-1.312,2.338-2.155,4.11l-.006.013q-.166.35-.333.714l-.011.025c-.048.1-.1.21-.143.316l-.034.075-.138.311-.02.044-.149.344-.047.112-.1.235-.06.144-.092.224-.082.2c-.034.084-.068.169-.1.254l-.058.148c-.032.08-.063.161-.1.243l-.041.107c-.046.119-.091.239-.136.359l-.023.061q-.063.169-.124.339l-.019.053q-.142.4-.276.8l-.011.033q-.135.406-.258.813l-.009.029c-.041.136-.081.272-.12.408.048-.079,1.572-2.613,2.1-3.292.446-.58,2.615.394,3.3.722.01-.03.02-.059.03-.089l.067-.2c.046-.136.092-.272.14-.406q.042-.119.084-.237.064-.179.128-.356l.1-.256q.062-.165.124-.327l.1-.265q.061-.156.123-.311c.036-.088.071-.177.107-.265s.084-.2.126-.3.072-.173.109-.259c.045-.1.09-.207.134-.31.035-.08.07-.161.105-.241.056-.125.112-.249.169-.373.026-.056.051-.112.076-.167q.123-.265.248-.524c.027-.057.055-.113.083-.169.058-.119.116-.239.175-.357l.092-.182c.057-.113.114-.225.172-.337.03-.059.061-.116.092-.175q.09-.171.18-.339l.085-.157q.1-.178.2-.354l.072-.129c.074-.13.147-.259.221-.387l.051-.087c.087-.15.176-.3.264-.446l.008-.012c.025-.043.051-.085.076-.128l-3.969-.677s-.158.254-.423.709h0Z" transform="translate(-17.452 -19.59)" fill="#3d2d20"/>
    <path id="Path_428" data-name="Path 428" d="M442.538,56.663l-.038.071,0,.005c-.119.223-.264.5-.428.822l-.008.016-.058.115-.017.034-.092.183-.04.08-.043.087-.081.165-.024.048-.076.157-.024.05-.1.21v0q-.054.112-.109.228l-.008.017q-.123.261-.251.539l-.024.053c-.077.17-.156.343-.236.522-.009.021-.018.042-.028.063-.078.176-.156.354-.235.537l-.039.093c-.079.184-.158.371-.236.562l-.064.154-.067.165-.077.193-.058.146-.095.242-.041.106-.135.356-.025.068c-.036.1-.072.194-.108.292l-.046.128c-.029.079-.057.158-.086.238-.017.049-.034.1-.051.145l-.079.228-.051.149q-.042.123-.082.246c-.015.043-.029.086-.043.13-.036.113-.073.226-.108.339.531-.594,1.217-1.257,1.627-1.257a2.379,2.379,0,0,1,1.1.406l.092-.228.082-.2.093-.224.06-.144.1-.235.048-.112.149-.344.02-.044.138-.311.034-.075c.047-.106.1-.211.143-.316l.011-.025q.167-.365.333-.714l.006-.013c.843-1.773,1.651-3.237,2.155-4.11l0,0,.1-.165h0l-2.565-.431s-.1.169-.263.477h0Z" transform="translate(-15.936 -19.863)" fill="#f6ebd8"/>
    <path id="Path_429" data-name="Path 429" d="M485.225,130.266l.021-.048C485.24,130.218,485.232,130.235,485.225,130.266Z" transform="translate(-38.734 -56.516)" fill="#dbd1c2"/>
    <path id="Path_430" data-name="Path 430" d="M444.5,83.533c.022-.253.046-.5.071-.754.01-.1.021-.2.031-.294.016-.15.031-.3.049-.448.013-.114.026-.227.04-.34.016-.131.031-.262.048-.393s.03-.237.047-.354.033-.246.05-.368.034-.24.052-.359.035-.236.053-.354.037-.239.056-.358.038-.231.058-.346.039-.236.06-.353.042-.232.063-.348.041-.227.062-.339c.032-.171.066-.341.1-.51q.045-.224.092-.447c.025-.118.049-.236.074-.353s.048-.216.072-.325.05-.223.076-.334.051-.214.076-.321.053-.218.079-.327.053-.211.079-.316.055-.215.083-.322.055-.208.082-.311.058-.213.087-.318.056-.2.085-.3.061-.21.091-.314.058-.2.088-.3l.058-.191c.047-.154.094-.308.143-.461.022-.071.045-.141.068-.211.037-.113.073-.228.11-.34-.683-.328-2.852-1.3-3.3-.722-.524.678-2.049,3.212-2.1,3.292v0l-.005.017q-.045.157-.087.314c-.01.036-.019.071-.029.107q-.031.115-.061.229c-.01.039-.02.078-.03.117q-.03.115-.058.23c-.008.035-.017.069-.025.1q-.038.159-.074.317l0,.014c-.025.11-.048.219-.071.328l-.021.1c-.016.076-.03.152-.045.227l-.023.118q-.02.11-.039.22c-.007.037-.013.074-.019.111q-.024.143-.046.287l-.008.052q-.023.151-.042.3-.008.057-.014.114c-.009.069-.017.138-.025.207-.005.041-.009.083-.014.125q-.011.1-.02.2l-.011.117c-.007.09-.014.18-.02.27,0,.022,0,.044,0,.066-.006.093-.01.186-.014.278,0,.036,0,.072,0,.108q0,.1,0,.2c0,.038,0,.077,0,.115q0,.1,0,.2c0,.033,0,.067,0,.1q0,.149.011.3c.013.263.036.522.07.774l3.846,2.471Z" transform="translate(-16.653 -27.338)" fill="#201912"/>
    <path id="Path_431" data-name="Path 431" d="M438.786,79.547q0-.1,0-.2c0-.038,0-.076,0-.115q0-.1,0-.2c0-.036,0-.072,0-.108,0-.092.008-.185.014-.278,0-.022,0-.044,0-.066.005-.09.013-.18.02-.27l.011-.117q.009-.1.02-.2c0-.041.009-.083.014-.125.008-.069.016-.138.025-.207,0-.038.009-.076.014-.114q.02-.149.042-.3l.008-.052q.022-.143.047-.287c.006-.037.013-.074.019-.111q.019-.11.039-.22l.023-.118c.015-.075.029-.151.045-.227.007-.034.014-.069.021-.1.023-.109.047-.218.071-.328l0-.014q.036-.158.074-.317c.008-.035.017-.069.025-.1q.028-.115.058-.23c.01-.039.02-.078.03-.117q.03-.114.061-.229c.01-.036.019-.071.029-.107.028-.1.058-.209.087-.314l.005-.017c.039-.137.079-.273.121-.41l.009-.029q.123-.407.258-.813l.011-.033q.133-.4.276-.8l.019-.053q.061-.17.124-.339l.023-.061c.045-.12.09-.24.136-.359l.041-.107.1-.243.058-.148.01-.025a2.379,2.379,0,0,0-1.1-.406c-.41,0-1.1.663-1.627,1.257l0,.013-.063.206-.06.195-.053.181c-.022.074-.044.148-.065.222l-.047.168c-.022.079-.044.158-.066.237-.014.053-.028.105-.041.157q-.033.126-.065.251l-.037.147c-.022.088-.043.177-.065.265l-.031.132c-.022.1-.044.19-.064.285l-.025.113q-.033.158-.065.316c-.005.027-.011.054-.016.081q-.029.153-.057.3c-.006.028-.011.057-.016.085-.018.1-.034.2-.051.3,0,.028-.01.056-.014.083-.016.1-.03.205-.044.307,0,.026-.008.052-.011.077-.014.1-.026.208-.038.312,0,.023-.006.046-.009.07-.012.107-.022.213-.031.318l-.006.061c-.009.109-.017.218-.024.327,0,.016,0,.033,0,.049-.007.112-.012.223-.016.335,0,.012,0,.025,0,.037,0,.123-.006.246-.007.367,0,.062,0,.124,0,.186l1.828,1.992.015-.018c0-.1-.009-.2-.011-.3C438.786,79.615,438.786,79.581,438.786,79.547Z" transform="translate(-14.864 -26.995)" fill="#d5c8b4"/>
    <path id="Path_432" data-name="Path 432" d="M426.49,36.57C411.632,29.316,408.8,18.43,408.4,16.514c.473,4.253,2.939,15.029,15.649,24.282q.562.41,1.15.814c.06-.145.12-.285.18-.426l.039-.093q.118-.274.235-.537c.01-.021.019-.042.028-.063.079-.178.158-.352.236-.522l.024-.053c.085-.185.169-.365.251-.539l.008-.017.109-.228v0l.1-.21.024-.05.076-.157.024-.048.081-.165.043-.087.04-.08.092-.183.017-.034.058-.115.008-.016c.164-.322.309-.6.428-.822l0-.005.038-.071.047-.086h0Q426.935,36.787,426.49,36.57Z" transform="translate(-0.744 -0.287)" fill="#f6ebd8"/>
    <path id="Path_433" data-name="Path 433" d="M426.5,36.578c-14.858-7.254-17.694-18.139-18.086-20.055.473,4.253,4.041,16.106,18.01,22.406.017.008.016-.033.024-.05l.077-.157.023-.048.081-.165.043-.088.04-.08.092-.183.017-.033.059-.115.008-.016c.164-.323.309-.6.428-.822l0-.005.038-.071.046-.086h0Q426.943,36.8,426.5,36.578Z" transform="translate(-0.749 -0.291)" fill="#fff5e5"/>
    <path id="Path_434" data-name="Path 434" d="M423.309,40.509c-12.71-9.253-15.176-20.029-15.649-24.282-.039-.191-.054-.293-.054-.293-.007.033-.014.068-.021.1-3.7,17.981,8.548,29.927,12.973,33.575m0,0c.946.779,1.534,1.18,1.534,1.18,0-.121,0-.244.007-.367,0-.013,0-.025,0-.037,0-.111.009-.222.016-.335,0-.016,0-.033,0-.049.007-.108.015-.217.024-.327l.006-.061c.01-.106.02-.212.031-.318,0-.023.006-.047.009-.07.012-.1.024-.208.038-.312l.011-.077c.014-.1.028-.2.044-.307,0-.027.009-.055.014-.083.016-.1.033-.2.05-.3.005-.028.01-.057.016-.085q.027-.152.057-.3l0-.022.012-.059q.032-.158.065-.316l.025-.113q.031-.143.064-.285l.031-.132c.021-.088.043-.177.065-.265.012-.049.024-.1.037-.147q.032-.125.065-.251c.014-.052.027-.1.042-.157l.066-.238.047-.167c.021-.074.043-.148.065-.222s.035-.121.054-.181.039-.13.06-.195.042-.137.063-.206l0-.013c.035-.113.072-.226.108-.339.014-.044.029-.087.043-.13q.04-.124.082-.246c.017-.05.034-.1.051-.149l.079-.228c.017-.049.034-.1.051-.145q.042-.119.086-.238c.015-.043.031-.085.046-.128.036-.1.072-.2.108-.292.008-.023.017-.046.025-.068q.068-.179.135-.356l.041-.106.094-.242.058-.146.077-.193.067-.164.064-.155.056-.135q-.589-.4-1.15-.814" transform="translate(0 0)" fill="#d5c8b4"/>
    <path id="Path_435" data-name="Path 435" d="M469.193,100.844l-17.871,3.287-4.62.85c-.024.1-.106.43-.22.883-.176.692-.449,1.745-.791,2.99l-.225.812,1.44-.388,1.6-.43,5.866-1.58,7.311-1.969,4.7,2.842v5.736l.252.189,3.174,2.387V100.731Z" transform="translate(-19.073 -41.934)" fill="#3d2d20"/>
    <path id="Path_436" data-name="Path 436" d="M470.062,100.844l-17.871,3.287-4.62.85s-.148.636-.347,1.386l23.452-4.211v-1.424Z" transform="translate(-19.942 -41.934)" fill="#584130"/>
    <path id="Path_437" data-name="Path 437" d="M454.138,44.877c-.025.042-.051.085-.076.128l-.008.012q-.133.221-.264.446l-.051.087c-.074.128-.148.257-.221.387l-.072.129q-.1.176-.2.354l-.086.157c-.06.112-.12.225-.18.339l-.092.175c-.058.112-.115.224-.172.337l-.092.182c-.059.118-.117.238-.175.357-.028.057-.056.112-.083.169q-.125.259-.248.524l-.076.167c-.056.124-.113.247-.169.373-.035.079-.07.16-.105.241-.045.1-.09.206-.134.31-.037.086-.073.173-.109.259s-.084.2-.126.3-.071.176-.107.265-.082.207-.123.311l-.1.265q-.062.162-.124.327l-.1.256q-.064.177-.128.356l-.084.237c-.048.134-.094.27-.14.406l-.067.2c-.047.142-.094.286-.14.429-.022.07-.045.14-.068.211-.048.153-.1.307-.143.461-.019.064-.039.127-.058.191-.03.1-.059.2-.088.3s-.061.209-.091.314-.057.2-.085.3-.059.212-.087.318-.055.207-.082.311-.056.214-.083.322-.054.21-.079.316-.053.218-.079.327-.051.214-.076.321-.051.223-.076.334-.049.216-.072.325-.05.235-.074.353q-.047.223-.092.447c-.034.169-.067.339-.1.51-.021.113-.041.226-.062.34s-.042.232-.063.348-.04.236-.06.353-.039.23-.058.346-.037.238-.056.358-.036.236-.053.354-.035.239-.052.359-.034.245-.05.368-.031.236-.047.354-.032.262-.048.393c-.014.113-.027.226-.04.34-.017.149-.033.3-.049.448-.011.1-.021.2-.031.294-.025.25-.049.5-.071.754h0a64.946,64.946,0,0,0-.22,6.85l6.311-1.382,6.646-1.455,5.649-1.237.1-5.519.051-8.481.072-4,.035-9.39.14-7.218A35.5,35.5,0,0,0,454.138,44.877Z" transform="translate(-20.269 -8.243)" fill="#1d5f35"/>
    <path id="Path_438" data-name="Path 438" d="M489.534,34.728l.073-5.66a22.456,22.456,0,0,0-4.1,1.786l.079,7.005.014-.014-.014.015.142,12.546.168,14.888.008,0v.681l3.233-.594.254-19.525.145-11.126" transform="translate(-38.874 -6.495)" fill="#3d2d20"/>
    <path id="Path_439" data-name="Path 439" d="M492.686,100.818l.472-.087-.472.087Z" transform="translate(-42.424 -41.934)" fill="#523f2c"/>
    <path id="Path_440" data-name="Path 440" d="M466.517,67.214l-5.649,1.237-6.646,1.455-6.311,1.382,19.4-3.568h0V67.04l-.176-14.886-.141-12.546h0l-.079-7.005C466.784,32.673,466.517,67.214,466.517,67.214Z" transform="translate(-20.282 -8.243)" fill="#ffa740"/>
    <path id="Path_441" data-name="Path 441" d="M527.067,56.365q.133.221.265.446c.017.029.033.058.05.087q.111.192.221.387l.073.129q.1.176.2.354l.085.157q.091.168.18.339l.092.175c.058.112.115.224.172.337.031.061.062.121.092.182.059.118.118.238.176.357l.083.169c.083.173.166.347.247.524l.076.168c.057.123.113.246.168.371l.106.242c.044.1.089.205.134.309l.109.259c.042.1.084.2.126.3s.072.176.107.265.083.207.124.311c.034.088.068.176.1.265.041.108.083.217.124.327q.048.127.1.256c.043.118.086.237.129.356.028.079.056.158.084.237.047.134.094.27.14.406.022.066.045.131.067.2l.03.089c.683-.328,2.852-1.3,3.3-.722.523.678,2.048,3.212,2.1,3.292-.039-.136-.079-.272-.12-.408l-.009-.029q-.124-.408-.258-.813l-.011-.033c-.088-.267-.181-.533-.276-.8l-.019-.053q-.061-.17-.124-.339l-.022-.061q-.067-.18-.136-.359l-.041-.107c-.031-.081-.063-.162-.095-.243-.02-.05-.039-.1-.059-.148l-.1-.254q-.041-.1-.082-.2c-.031-.075-.061-.15-.093-.224l-.06-.144-.1-.235-.048-.112q-.074-.173-.149-.344l-.02-.044c-.046-.1-.092-.208-.138-.311l-.034-.075-.143-.316-.011-.025q-.167-.365-.333-.714l-.006-.013c-.843-1.772-1.651-3.236-2.155-4.11l0,0-.1-.165h0c-.265-.455-.423-.709-.423-.709l-3.969.677c.026.042.052.085.077.128Z" transform="translate(-59.385 -19.59)" fill="#3d2d20"/>
    <path id="Path_442" data-name="Path 442" d="M535.769,56.7l0,0c.5.873,1.313,2.337,2.155,4.11l.006.013q.165.35.333.714l.012.025.143.316.034.075c.046.1.092.206.137.311l.02.044c.05.114.1.229.149.344l.048.112.1.235.06.144c.031.074.062.149.093.224l.082.2.092.228a2.378,2.378,0,0,1,1.1-.406c.411,0,1.1.663,1.628,1.257-.036-.113-.072-.226-.109-.339-.014-.044-.029-.087-.043-.13-.027-.082-.054-.164-.082-.246l-.051-.149c-.026-.076-.052-.152-.079-.228l-.051-.145-.085-.238-.047-.128c-.035-.1-.071-.2-.107-.292l-.025-.068q-.067-.179-.135-.356l-.041-.106-.095-.242-.057-.146-.077-.193-.067-.165-.064-.154c-.079-.191-.158-.378-.237-.562l-.039-.092c-.079-.183-.157-.361-.235-.537l-.028-.063c-.079-.178-.158-.352-.236-.522l-.024-.053q-.128-.277-.251-.539l-.008-.017-.109-.228v0l-.1-.21-.024-.05-.076-.157-.024-.048-.081-.165-.043-.087-.04-.08-.092-.183-.017-.034-.058-.115-.008-.016c-.164-.322-.309-.6-.428-.822l0-.005-.038-.071-.047-.086h0c-.166-.307-.263-.477-.263-.477l-2.564.431h0Z" transform="translate(-63.682 -19.863)" fill="#f6ebd8"/>
    <path id="Path_443" data-name="Path 443" d="M535.782,56.7l0,0c.294.509.691,1.219,1.138,2.073a8.762,8.762,0,0,0,2.47-.484l-.023-.048-.081-.165-.043-.087-.04-.08-.092-.183-.017-.034-.059-.115-.008-.016c-.164-.322-.309-.6-.428-.822l0-.005-.038-.071-.047-.086h0c-.166-.307-.263-.477-.263-.477l-2.565.431h0Z" transform="translate(-63.689 -19.863)" fill="#fff5e5"/>
    <path id="Path_444" data-name="Path 444" d="M501.994,130.266c-.007-.031-.015-.048-.021-.048Z" transform="translate(-47.017 -56.516)" fill="#dbd1c2"/>
    <path id="Path_445" data-name="Path 445" d="M540.588,79.891q0-.1,0-.2c0-.038,0-.076,0-.115,0-.067,0-.134,0-.2,0-.036,0-.072,0-.108,0-.092-.008-.185-.013-.278,0-.022,0-.044,0-.066-.005-.09-.012-.18-.02-.27,0-.038-.007-.078-.011-.117-.006-.067-.012-.134-.019-.2,0-.041-.009-.083-.014-.125-.008-.069-.016-.138-.025-.207-.005-.038-.009-.076-.014-.114-.013-.1-.027-.2-.042-.3l-.008-.052c-.015-.1-.03-.191-.046-.287-.006-.037-.013-.074-.019-.111-.013-.073-.026-.147-.04-.22-.007-.039-.015-.079-.022-.118l-.045-.227-.021-.1c-.023-.109-.046-.218-.071-.328l0-.014c-.024-.106-.048-.211-.073-.317l-.026-.1-.057-.23-.03-.117c-.02-.076-.04-.153-.06-.229l-.029-.107q-.043-.157-.087-.314l-.005-.017v0c-.048-.079-1.573-2.613-2.1-3.292-.446-.58-2.615.394-3.3.722.037.112.073.227.11.34.023.07.045.14.068.211.049.153.1.307.143.461.02.064.039.127.059.191l.088.3.091.314q.042.151.084.3c.029.106.059.212.087.318s.055.207.082.311.056.214.083.322.053.21.08.316.053.218.079.327.051.214.076.321.051.223.076.334.049.216.072.325.049.234.074.351q.048.231.1.465c.033.164.066.329.1.494.021.113.041.226.062.34s.042.232.063.348.04.235.06.353.038.23.057.346.038.238.056.358.036.236.054.354l.052.359c.017.122.034.245.05.368s.031.236.047.354.032.262.048.393c.013.113.027.226.04.34.017.149.033.3.049.448.01.1.021.2.031.294.025.25.049.5.071.754h0l3.846-2.471c.034-.253.058-.512.07-.774.005-.1.008-.2.011-.3C540.587,79.958,540.587,79.924,540.588,79.891Z" transform="translate(-63.042 -27.338)" fill="#201912"/>
    <path id="Path_446" data-name="Path 446" d="M546.533,77.38c0-.111-.009-.222-.016-.335,0-.016,0-.033,0-.049-.007-.108-.015-.217-.024-.327,0-.02,0-.04-.006-.061q-.014-.158-.032-.318c0-.023-.005-.046-.009-.07q-.017-.155-.038-.312c0-.026-.008-.052-.011-.077q-.021-.153-.044-.307l-.014-.083c-.016-.1-.033-.2-.05-.3l-.016-.085c-.018-.1-.037-.2-.057-.3l-.016-.081q-.031-.158-.065-.316c-.008-.038-.016-.076-.025-.113-.021-.1-.042-.19-.064-.285-.01-.044-.021-.088-.031-.132-.021-.088-.043-.177-.064-.265-.012-.049-.025-.1-.037-.147q-.032-.125-.065-.251c-.014-.052-.028-.1-.042-.157-.021-.079-.044-.158-.065-.237-.016-.056-.031-.112-.048-.168-.021-.074-.043-.148-.065-.222s-.035-.121-.053-.181l-.06-.195c-.021-.069-.042-.137-.064-.206l0-.013c-.531-.594-1.217-1.257-1.628-1.257a2.378,2.378,0,0,0-1.1.406l.01.025.059.148c.032.08.063.161.094.243l.042.107q.068.179.136.359l.022.061q.063.169.124.339l.019.053c.095.265.187.531.275.8l.011.033q.134.406.258.813l.009.029q.062.2.121.41l.005.017c.03.1.059.209.087.314l.029.107.06.229.03.117c.019.077.039.154.057.23l.026.1q.038.158.073.317l0,.014c.025.11.048.219.071.328l.021.1c.015.076.03.152.045.227.008.039.015.079.022.118q.021.11.04.22c.006.037.013.074.019.111q.024.143.046.287l.008.052c.015.1.029.2.043.3.005.038.009.076.014.114.009.069.017.138.025.207l.014.125c.007.067.013.134.019.2,0,.039.008.078.011.117.008.09.014.18.02.27,0,.022,0,.044,0,.066.005.093.01.186.013.278,0,.036,0,.072,0,.108,0,.067,0,.134,0,.2,0,.038,0,.077,0,.115q0,.1,0,.2c0,.033,0,.067,0,.1,0,.1-.006.2-.011.3l.014.018,1.828-1.992c0-.061,0-.123,0-.186,0-.121,0-.244-.007-.367C546.535,77.405,546.534,77.392,546.533,77.38Z" transform="translate(-67.166 -26.995)" fill="#d5c8b4"/>
    <path id="Path_447" data-name="Path 447" d="M542.17,36.57q-.444.218-.9.43h0l.047.086.038.071,0,.005c.119.223.264.5.428.822l.008.016.059.115.017.034.092.183.04.08.043.087.081.165.024.048.076.157.024.05.1.21v0l.109.228.008.017c.082.173.166.354.251.539l.024.053c.078.17.156.343.236.522l.028.063q.117.263.234.537l.039.093c.06.141.12.282.181.427q.587-.4,1.149-.814c12.71-9.253,15.176-20.029,15.649-24.282C559.864,18.43,557.028,29.316,542.17,36.57Z" transform="translate(-66.448 -0.287)" fill="#f6ebd8"/>
    <path id="Path_448" data-name="Path 448" d="M562.474,16.035c-.006-.033-.014-.068-.021-.1,0,0-.015.1-.054.293-.473,4.253-2.939,15.029-15.649,24.282q-.562.41-1.149.814l.055.135.064.154.067.165.077.193.058.146c.032.08.063.161.095.242l.041.106q.068.177.136.356l.025.068c.036.1.072.194.108.292l.047.128.085.238c.017.049.034.1.051.145.027.076.052.152.079.228.017.05.034.1.051.149.028.082.055.164.082.246l.043.13c.037.113.073.226.109.339l0,.013c.022.068.042.137.064.206l.06.195c.018.061.035.121.053.181s.044.148.065.222l.048.167c.022.079.044.159.065.238l.042.157q.033.126.065.251l.037.147c.022.088.043.177.064.265.01.044.021.088.031.132q.033.143.064.285c.009.037.017.075.025.113q.034.158.065.316c0,.02.009.039.012.059l0,.022c.02.1.039.2.057.3l.016.085c.018.1.034.2.051.3l.014.083c.016.1.03.205.044.307,0,.026.008.052.011.077q.02.156.038.312,0,.035.009.07.017.16.032.318c0,.02,0,.04.006.061.01.109.017.218.024.327,0,.016,0,.033,0,.049.006.112.011.223.016.335,0,.013,0,.025,0,.037,0,.123.007.246.007.367,0,0,.588-.4,1.534-1.18C553.927,45.962,566.173,34.016,562.474,16.035Z" transform="translate(-68.592 0)" fill="#d5c8b4"/>
    <path id="Path_449" data-name="Path 449" d="M517.733,108.85c-.341-1.243-.614-2.3-.79-2.988-.115-.452-.2-.785-.22-.883l-4.607-.847h0l-18.5-3.4v15.722l3.174-2.387.252-.189v-5.736l4.7-2.842,7.311,1.969,5.866,1.58,1.6.43,1.44.388Z" transform="translate(-42.885 -41.934)" fill="#201912"/>
    <path id="Path_450" data-name="Path 450" d="M520.515,64.438h0c-.022-.253-.045-.5-.071-.754-.01-.1-.021-.2-.031-.294-.016-.15-.032-.3-.048-.448-.013-.114-.027-.227-.04-.34-.016-.131-.032-.262-.048-.393s-.031-.237-.046-.354-.033-.246-.05-.368l-.052-.359c-.018-.118-.035-.236-.054-.354s-.037-.239-.056-.358-.038-.232-.057-.346-.039-.236-.06-.353-.042-.232-.063-.348-.04-.227-.062-.34c-.031-.166-.064-.33-.1-.494s-.063-.31-.1-.465c-.025-.117-.048-.235-.074-.351s-.049-.216-.072-.325-.05-.223-.076-.334-.05-.214-.076-.321-.053-.218-.079-.327-.053-.211-.079-.316-.055-.215-.083-.322-.055-.208-.082-.311-.058-.213-.087-.318-.056-.2-.084-.3l-.091-.314c-.029-.1-.059-.2-.088-.3-.019-.064-.039-.127-.059-.191-.047-.154-.094-.308-.143-.461-.022-.071-.045-.141-.068-.211-.046-.144-.093-.287-.14-.429-.022-.066-.045-.131-.067-.2-.046-.136-.093-.272-.14-.406-.028-.079-.056-.158-.084-.237-.043-.119-.085-.238-.129-.356-.031-.086-.063-.171-.095-.256-.041-.11-.083-.219-.124-.327l-.1-.265c-.041-.1-.082-.208-.124-.311s-.071-.177-.107-.265-.084-.2-.126-.3L517,49.751c-.044-.1-.089-.206-.134-.309l-.106-.242c-.056-.125-.112-.248-.168-.371-.025-.056-.05-.112-.076-.168-.081-.176-.164-.351-.247-.524l-.083-.169c-.058-.119-.117-.239-.176-.357-.03-.061-.061-.121-.092-.182-.057-.113-.115-.225-.172-.337l-.092-.175q-.09-.171-.181-.339l-.085-.157q-.1-.178-.2-.354l-.073-.129c-.073-.13-.147-.259-.221-.387l-.051-.087c-.088-.15-.176-.3-.265-.446l-.007-.012c-.025-.043-.051-.085-.077-.128A35.5,35.5,0,0,0,501.732,32.6l.063,7.6.026,9.212.03,3.926.009,8.479.271,5.395,5.648,1.237,6.646,1.455,6.311,1.382A64.8,64.8,0,0,0,520.515,64.438Z" transform="translate(-46.897 -8.243)" fill="#124122"/>
    <path id="Path_451" data-name="Path 451" d="M497.72,30.854a22.445,22.445,0,0,0-4.1-1.786l.074,5.66.218.128-.218-.128.145,11.126.254,19.525,3.233.594v-.681l.008,0,.168-14.888.142-12.546-.014-.015.014.014Z" transform="translate(-42.885 -6.495)" fill="#1c1610"/>
    <path id="Path_452" data-name="Path 452" d="M494.091,100.818h0l-.472-.087Z" transform="translate(-42.885 -41.934)" fill="#3f2f23"/>
    <path id="Path_453" data-name="Path 453" d="M454.939,45.025q-.133.221-.265.446l-.051.087q-.111.192-.221.387l-.073.129q-.1.176-.2.354l-.085.157q-.091.168-.18.339c-.031.059-.062.116-.092.175-.058.112-.115.224-.172.337-.031.061-.062.121-.092.182-.059.118-.118.238-.176.357-.027.057-.056.112-.083.169-.083.173-.166.347-.247.524-.026.055-.051.111-.076.167-.057.124-.113.247-.169.373-.035.079-.07.16-.106.241-.045.1-.09.206-.134.31l-.109.259c-.042.1-.084.2-.126.3s-.072.176-.107.265-.083.207-.124.311l-.1.265q-.062.162-.124.327-.048.127-.1.256-.065.177-.129.356l-.084.237c-.047.134-.093.27-.139.406-.022.066-.045.131-.067.2-.047.142-.094.286-.14.429l-.068.211c-.048.153-.1.307-.142.461l-.058.191c-.03.1-.059.2-.088.3s-.061.209-.091.314-.057.2-.085.3-.058.212-.087.318-.055.207-.082.311-.055.214-.083.322-.053.21-.079.316-.053.218-.079.327-.051.214-.076.321-.051.223-.076.334-.048.216-.072.325-.049.235-.074.353q-.046.223-.092.447c-.033.169-.067.339-.1.51-.021.112-.041.226-.062.339a17.717,17.717,0,0,1,2.5-3.983,1.746,1.746,0,0,1,1.364-.707c1.931-.05,4.906,2.264,5.278,1.169a72.139,72.139,0,0,1,3.159-7.6,38.086,38.086,0,0,1,5.665-8.431l.14-7.218a35.494,35.494,0,0,0-12.764,12.275c-.026.042-.052.085-.077.128Z" transform="translate(-21.156 -8.246)" fill="#2a7d3f"/>
    <path id="Path_454" data-name="Path 454" d="M514.58,45.018c.089.147.177.3.265.446l.051.087c.074.128.148.257.221.387l.073.129q.1.176.2.354l.085.157q.091.168.181.339l.092.175c.058.112.115.224.172.337.031.061.062.121.092.182.059.118.118.238.176.357l.083.169c.083.173.166.347.247.524.026.055.051.111.076.167.057.124.113.247.169.373.036.079.07.16.106.241.045.1.09.206.135.31l.109.259c.042.1.084.2.126.3s.072.176.107.265.083.207.124.311l.1.265c.041.108.083.217.124.327.032.085.064.17.095.256.044.118.086.237.129.356.028.079.056.158.084.237.047.134.093.27.14.406.022.066.045.131.067.2.047.142.094.286.14.429l.068.211c.048.153.095.307.142.461.02.064.039.127.059.191.029.1.059.2.088.3s.061.209.091.314l.085.3c.029.106.058.212.087.318s.055.207.082.311.056.214.083.322.053.21.079.316.053.218.079.327.051.214.076.321.051.223.076.334.049.216.072.325.05.235.074.353c.031.149.062.3.091.447.034.169.068.339.1.51.021.112.041.226.062.339a17.749,17.749,0,0,0-2.5-3.983,1.746,1.746,0,0,0-1.364-.707c-1.931-.05-4.906,2.264-5.278,1.169a72.1,72.1,0,0,0-3.159-7.6,38.539,38.539,0,0,0-5.723-8.471l-.083-7.178A35.5,35.5,0,0,1,514.5,44.877c.026.042.052.085.077.128Z" transform="translate(-46.897 -8.243)" fill="#205830"/>
    <path id="Path_455" data-name="Path 455" d="M465.532,46.783c2.366-4.348,7.88-8.8,7.88-8.8l.047-2.9a35.877,35.877,0,0,0-11.912,12.105,1.735,1.735,0,0,0-.288,1.282c.254.689,1.766,1.233,3.223-.275A10.486,10.486,0,0,0,465.532,46.783Z" transform="translate(-26.86 -9.465)" fill="#90c474" opacity="0.48"/>
    <path id="Path_456" data-name="Path 456" d="M509.659,46.783c-2.366-4.348-7.88-8.8-7.88-8.8l-.047-2.9a35.881,35.881,0,0,1,11.912,12.105,1.737,1.737,0,0,1,.288,1.282c-.254.689-1.766,1.233-3.224-.275A10.521,10.521,0,0,1,509.659,46.783Z" transform="translate(-46.897 -9.465)" fill="#88bb70" opacity="0.48"/>
    <path id="Path_457" data-name="Path 457" d="M494.23,100.844,512.1,104.13l4.62.85s.147.636.347,1.386l-23.451-4.211v-1.424Z" transform="translate(-42.884 -41.934)" fill="#3c2c20"/>
    <path id="Path_458" data-name="Path 458" d="M542.169,36.569c14.858-7.254,17.694-18.14,18.086-20.056-.472,4.253-4.041,16.106-18.01,22.406-.017.008-.016-.033-.024-.05l-.076-.157-.024-.048-.081-.165L542,38.412l-.04-.08c-.031-.063-.062-.124-.092-.183l-.017-.033L541.789,38l-.008-.016c-.164-.322-.309-.6-.428-.822l0-.005-.038-.071L541.266,37h0Q541.725,36.786,542.169,36.569Z" transform="translate(-66.448 -0.286)" fill="#fff5e5"/>
    <path id="Path_459" data-name="Path 459" d="M447.83,56.7l0,0c-.293.509-.691,1.219-1.138,2.073a8.763,8.763,0,0,1-2.47-.484l.024-.048.081-.165.044-.087.04-.08.092-.183.017-.034.058-.115.008-.016c.164-.322.309-.6.428-.822l0-.005.038-.071.046-.086h0c.167-.307.263-.477.263-.477l2.564.431h0Z" transform="translate(-18.456 -19.863)" fill="#fff5e5"/>
    <path id="Path_460" data-name="Path 460" d="M501.266,39.608l-.142,12.546-.176,14.886v.681h0l19.4,3.568-6.311-1.382-6.646-1.455-5.648-1.237-.4-34.612.4.219q-.2-.114-.4-.219l-.079,7.005Z" transform="translate(-46.51 -8.243)" fill="#ffa740"/>
  </g>
</svg>
