<svg xmlns="http://www.w3.org/2000/svg" width="23" height="23" viewBox="0 0 23 23">
  <path id="Instagram" d="M1426.77-627a6.768,6.768,0,0,1-4.823-1.808A6.673,6.673,0,0,1,1420-633.77v-9.506a6.352,6.352,0,0,1,6.724-6.724h9.553a6.6,6.6,0,0,1,4.869,1.9,6.646,6.646,0,0,1,1.855,4.823v9.553a6.638,6.638,0,0,1-1.9,4.915A6.847,6.847,0,0,1,1436.23-627Zm-3.385-19.661a4.621,4.621,0,0,0-1.252,3.385v9.506a4.659,4.659,0,0,0,1.252,3.431,4.793,4.793,0,0,0,3.385,1.206h9.46a4.794,4.794,0,0,0,3.385-1.206,4.531,4.531,0,0,0,1.344-3.385v-9.553a4.783,4.783,0,0,0-1.252-3.339,4.621,4.621,0,0,0-3.385-1.252h-9.553A4.715,4.715,0,0,0,1423.385-646.661Zm2.179,8.115a5.947,5.947,0,0,1,5.935-5.935,5.977,5.977,0,0,1,5.936,5.935,5.947,5.947,0,0,1-5.936,5.936A5.917,5.917,0,0,1,1425.565-638.546Zm2.133,0a3.82,3.82,0,0,0,3.8,3.8,3.82,3.82,0,0,0,3.8-3.8,3.82,3.82,0,0,0-3.8-3.8A3.82,3.82,0,0,0,1427.7-638.546Zm8.625-6.075a1.344,1.344,0,0,1,1.345-1.345,1.345,1.345,0,0,1,1.344,1.345,1.345,1.345,0,0,1-1.344,1.345A1.344,1.344,0,0,1,1436.323-644.621Z" transform="translate(-1420 650)" fill="#4c3725"/>
</svg>
