<svg xmlns="http://www.w3.org/2000/svg" width="95.696" height="40.36" viewBox="0 0 95.696 40.36">
  <g id="Group_448" data-name="Group 448" transform="translate(-820.16 -477.297)">
    <path id="Path_371" data-name="Path 371" d="M975.435,491.394c-.484,0-.64-.23-.636-.674.007-2.169.007-10.919,0-13.088h-4.2c-.014,2.335-.007,11.247.017,13.582.027,2.426,1.478,4.264,3.888,4.264l12.755.014a3.75,3.75,0,0,0,3.77-3.912c0-.061,0-.122,0-.183C991.029,491.4,979.039,491.387,975.435,491.394Z" transform="translate(-99.521 -0.222)" fill="#fff"/>
    <path id="Path_372" data-name="Path 372" d="M1058.214,491.4a.412.412,0,0,1-.068,0q-5.406-.016-10.809-.007c-.484,0-.64-.23-.636-.674.007-2.169.007-10.919,0-13.088h-4.2c-.014,2.335-.007,11.247.017,13.582.027,2.426,1.479,4.179,3.888,4.264,4.247.146,8.5.142,12.755.014a3.791,3.791,0,0,0,3.77-3.912c0-.061,0-.122,0-.183Z" transform="translate(-147.09 -0.222)" fill="#fff"/>
    <path id="Path_373" data-name="Path 373" d="M867.417,481.3a3.788,3.788,0,0,0-3.77-3.909c-4.251-.129-8.508-.132-12.755.014-2.41.085-3.861,1.834-3.888,4.261-.024,2.335-.031,4.663-.017,7h4.2q.01-3.254,0-6.5c0-.443.152-.673.636-.673q5.406.01,10.809-.007c.464,0,.663.179.663.646q-.01,4.178.007,8.356c0,.548-.223.724-.761.717-1.773-.027-3.547-.01-5.323-.014l-15.128.01a2.949,2.949,0,0,1-1.793-.662,2.094,2.094,0,0,0-.264-.17q-2.35-1.294-4.691-2.6h0q2.182-1.213,4.361-2.433a4.139,4.139,0,0,0,2.2-4.521,4.062,4.062,0,0,0-1.3-2.328,4.394,4.394,0,0,0-2.426-1.029,8.4,8.4,0,0,0-1.012-.044H829.11q-3.279-.005-6.562,0h-.907v4.183h15.787c.017.071.034.142.051.217-.169.115-.328.247-.508.345q-2.924,1.635-5.844,3.262-2.6,1.454-5.208,2.9h0v-4.193h-4.277v6.8a1.264,1.264,0,0,0-.088.553c.041,1.262.014,2.531.014,3.966l.074-.041v.041h4.277v-2.418l1.547-.861q1.833-1.02,3.662-2.044h0q1.833,1.02,3.662,2.044c1.489.829,2.981,1.658,4.548,2.528.118.064.237.132.355.2a.1.1,0,0,0,.027.014,4.24,4.24,0,0,0,.968.332,5.371,5.371,0,0,0,1.168.125c1.943.007,13.415,0,15.361,0v0c1.943,0,3.888,0,5.831,0,2.6,0,4.315-1.5,4.4-4.091C867.542,487.948,867.515,484.622,867.417,481.3Z" transform="translate(-0.921)" fill="#fff"/>
    <path id="Path_374" data-name="Path 374" d="M1080.738,485.936v5.005h-1.57c-.006-.113-.017-.225-.017-.336q0-2.376,0-4.752a1.547,1.547,0,0,1,1-1.552,1.573,1.573,0,0,1,1.84.584q1.46,1.854,2.924,3.705a.641.641,0,0,0,.274.212v-4.578h1.591v4.714H1085.2l1.582,2.018c-.625,0-1.175.008-1.724-.009-.079,0-.167-.114-.231-.192q-1.893-2.292-3.782-4.588c-.072-.087-.146-.172-.219-.258Z" transform="translate(-171.343 -4.569)" fill="#fff"/>
    <path id="Path_375" data-name="Path 375" d="M1042.449,543.5h20.387v4.138h-.959c-4.735,0-9.471.018-14.207-.011-.794-.005-1.1.2-1.056,1.039.069,1.2.018,2.411.018,3.875l8.312-4.6c0,1.569.03,2.989-.031,4.406-.01.232-.389.507-.656.658-2.206,1.247-4.427,2.469-6.641,3.7a1.553,1.553,0,0,0-.661.618c.287.017.574.048.861.048,4.68,0,9.361.018,14.041-.014.783-.005,1.135.157,1.048,1.017a18.914,18.914,0,0,0-.018,2.367c.011.477-.112.719-.657.716-5.385-.019-10.771,0-16.155-.036a3.91,3.91,0,0,1-3.434-2.831,4.157,4.157,0,0,1,1.5-4.59c.7-.494,1.479-.888,2.223-1.327l-.025-.233h-3.893V543.5Z" transform="translate(-147.063 -43.797)" fill="#fff"/>
    <g id="Group_447" data-name="Group 447" transform="translate(820.16 498.579)">
      <path id="Path_376" data-name="Path 376" d="M836.476,546.484h4.2c0-.5,0-.772,0-.9-.007,0-.01-.186-.02-1.022-.027-2.426-1.479-4.179-3.888-4.264-4.247-.146-8.5-.143-12.755-.014a3.885,3.885,0,0,0-2.281.771,3.991,3.991,0,0,0-1.489,3.141c0,.129-.007.261-.01.39-.091,3.191-.112,6.389-.017,9.58a5.371,5.371,0,0,0,.068.717,3.9,3.9,0,0,0,3.844,3.36h.007c.156.01.315.017.477.017,1.943,0,3.888,0,5.831,0v0c1.946,0,3.888.007,5.831,0a4.086,4.086,0,0,0,4.372-4.159H833.6v-.017c-1.049,0-2.1,0-3.151,0-1.777,0-3.55-.014-5.323.014a1.208,1.208,0,0,1-.372-.041c-.271-.078-.389-.278-.389-.677q.015-3.081.01-6.156,0-1.1,0-2.2c0-.467.2-.65.663-.647q1.34.005,2.68,0,4.066.01,8.129,0c.484,0,.64.23.636.673,0,.67,0,.856,0,.856C836.473,546.04,836.476,546.226,836.476,546.484Z" transform="translate(-820.16 -540.184)" fill="#fff"/>
      <path id="Path_377" data-name="Path 377" d="M840.9,565.916a4.312,4.312,0,0,1-.081.741,4.079,4.079,0,0,1-3.726,3.357,8.409,8.409,0,0,1-1.012.044q-5.838.005-11.682,0h-.007a3.9,3.9,0,0,1-3.844-3.36v-.826H836.33l.051-.213c-.169-.115-.328-.247-.508-.345-3.75-2.095-2.927-1.545-4.095-2.188a1.115,1.115,0,0,1-.629-.7,1.519,1.519,0,0,1-.037-.409c.041-1.266.014-2.532.014-3.966.518.288,3.932,2.1,7.482,4.083A4.17,4.17,0,0,1,840.9,565.916Z" transform="translate(-820.413 -552.006)" fill="#fff"/>
    </g>
    <path id="Path_378" data-name="Path 378" d="M914.888,558.227c-1.153-2.073-1.378-2.555-2.444-4.467-2.275-4.08-4.552-7.2-6.827-11.285a4.144,4.144,0,0,0-4.521-2.206,4.075,4.075,0,0,0-3.359,3.724,8.621,8.621,0,0,0-.044,1.012c0,4.875,0,7.451,0,12.326,0,.279,0,.558,0,.909h4.184v-13.49l.214-.049c.116.169.247.329.346.506,2.745,4.914,4.657,7.438,7.376,12.366a1.066,1.066,0,0,0,1.109.666C912.185,558.2,913.453,558.227,914.888,558.227Z" transform="translate(-51.293 -41.606)" fill="#fff"/>
    <path id="Path_379" data-name="Path 379" d="M971.74,552.457q-1.178,2.111-2.352,4.23-1.173-2.117-2.352-4.23c-1.523-2.735-3.053-4.514-4.579-7.249-.1-.179-.23-.338-.349-.508l-.213.051V558.24h-4.183v-.91c0-4.873,0-7.451,0-12.325a8.409,8.409,0,0,1,.044-1.012,4.076,4.076,0,0,1,3.357-3.726,4.146,4.146,0,0,1,4.521,2.207c1.252,2.24,2.5,3.526,3.75,5.766Q970.566,550.347,971.74,552.457Z" transform="translate(-91.003 -41.605)" fill="#fff"/>
    <path id="Path_380" data-name="Path 380" d="M999.29,557.333v.907h-4.183V544.752l-.213-.051a5.634,5.634,0,0,0-.349.508c-1.526,2.734-3.056,4.514-4.579,7.249q-1.178,2.111-2.352,4.23-1.173-2.117-2.352-4.23,1.178-2.107,2.352-4.217c1.249-2.24,2.5-3.526,3.75-5.766a4.146,4.146,0,0,1,4.521-2.207,4.076,4.076,0,0,1,3.357,3.726,8.4,8.4,0,0,1,.044,1.012C999.29,549.879,999.29,552.457,999.29,557.333Z" transform="translate(-109.229 -41.605)" fill="#fff"/>
    <rect id="Rectangle_111" data-name="Rectangle 111" width="1.591" height="6.734" transform="translate(904.92 479.655)" fill="#fff"/>
  </g>
</svg>
