<svg id="messenger-user-avatar" xmlns="http://www.w3.org/2000/svg" width="14.365" height="18.695" viewBox="0 0 14.365 18.695">
  <g id="Group_45" data-name="Group 45">
    <path id="Path_75" data-name="Path 75" d="M48.592,17.937a.76.76,0,0,0,.757.757H62.2a.76.76,0,0,0,.757-.757c0-4.191-1.893-7.788-4.557-9.227a4.753,4.753,0,1,0-5.239,0C50.485,10.149,48.592,13.747,48.592,17.937ZM55.774,1.515a3.231,3.231,0,1,1-3.231,3.231A3.238,3.238,0,0,1,55.774,1.515Zm0,8.016c2.954,0,5.377,3.37,5.643,7.65H50.132C50.4,12.9,52.821,9.53,55.774,9.53Z" transform="translate(-48.592)" fill="#fff"/>
  </g>
</svg>
