<svg id="star-shape-favorite" xmlns="http://www.w3.org/2000/svg" width="21.91" height="20.92" viewBox="0 0 21.91 20.92">
  <g id="Group_14" data-name="Group 14" transform="translate(0 0)">
    <path id="Path_23" data-name="Path 23" d="M21.22,18.52l-6.889-.581-2.68-6.371a.758.758,0,0,0-.7-.468.739.739,0,0,0-.7.468l-2.68,6.371L.692,18.52a.748.748,0,0,0-.657.518.779.779,0,0,0,.228.809L5.482,24.36,3.915,31.085a.756.756,0,0,0,1.125.822l5.916-3.577,5.916,3.577a.741.741,0,0,0,.392.114.8.8,0,0,0,.442-.139A.735.735,0,0,0,18,31.1l-1.567-6.725L21.65,19.86a.779.779,0,0,0,.228-.809A.743.743,0,0,0,21.22,18.52Zm-6.131,5.006a.756.756,0,0,0-.24.746l1.264,5.423-4.765-2.882a.741.741,0,0,0-.392-.114.71.71,0,0,0-.392.114L5.8,29.694l1.264-5.423a.756.756,0,0,0-.24-.746l-4.209-3.64,5.549-.468a.756.756,0,0,0,.632-.455l2.162-5.145,2.162,5.132a.728.728,0,0,0,.632.455l5.549.468Z" transform="translate(-0.001 -11.1)" fill="#fff"/>
  </g>
</svg>
