<svg id="Group_1" data-name="Group 1" xmlns="http://www.w3.org/2000/svg" width="21.528" height="17.495" viewBox="0 0 21.528 17.495">
  <g id="Group_397" data-name="Group 397" transform="translate(0 0)">
    <g id="Group_396" data-name="Group 396">
      <path id="Icon_simple-twitter" data-name="Icon simple-twitter" d="M21.485,5.453a8.97,8.97,0,0,1-2.532.7,4.447,4.447,0,0,0,1.941-2.441,9.116,9.116,0,0,1-2.809,1.061,4.412,4.412,0,0,0-7.632,3.012,4.516,4.516,0,0,0,.114,1.008,12.5,12.5,0,0,1-9.1-4.6,4.325,4.325,0,0,0-.6,2.22,4.414,4.414,0,0,0,1.962,3.674,4.4,4.4,0,0,1-2-.552v.055a4.415,4.415,0,0,0,3.539,4.33,4.453,4.453,0,0,1-1.984.076,4.431,4.431,0,0,0,4.13,3.065,8.851,8.851,0,0,1-5.473,1.888A9.366,9.366,0,0,1,0,18.884a12.553,12.553,0,0,0,6.782,1.981A12.465,12.465,0,0,0,19.335,8.321c0-.187,0-.377-.014-.565a8.912,8.912,0,0,0,2.206-2.285l-.042-.018Z" transform="translate(0 -3.371)" fill="#4c3725"/>
    </g>
  </g>
</svg>
