<svg xmlns="http://www.w3.org/2000/svg" width="89.181" height="40.931" viewBox="0 0 89.181 40.931">
  <g id="Group_1310" data-name="Group 1310" transform="translate(-1548.31 349.699)">
    <path id="Path_1253" data-name="Path 1253" d="M1554.344-347.177a3.458,3.458,0,0,0-3.137,1.751,16.786,16.786,0,0,0-.636,1.872,113.791,113.791,0,0,0-2.064,11.351,24.354,24.354,0,0,0-.006,6.159c.447,3.731.9,10.087,2.777,14.184.794,1.738,3.1,2.879,5.619,2.756,9.185-.447,23.029.268,28.013.085,13.169-.483,27.9-.473,41.224-.023,1.106.037,2.386.149,3.46.274-.026-2.983-1.931-5.9-1.856-9.042.092-3.838,1.2-7.838,2.042-11.686,1.46-6.69-1.81-13.795-.283-20.169-18.291-.044-27.025-.16-39.156.585C1580.106-348.451,1560.823-347.374,1554.344-347.177Z" transform="translate(0 0)" fill="#4e3829"/>
    <path id="Path_1254" data-name="Path 1254" d="M1570.468-340.448c4.111-.146,8.077.717,12.158.576q5.127-.177,10.241-.526c7.454-.5,14.81.1,22.25-.6,3.685-.348,7.494-.867,11.207-.918,2-.027,4.05.277,6.061.35a23.1,23.1,0,0,1,.118-8.095c-18.291-.044-27.025-.16-39.156.585-10.237.629-29.52,1.706-36,1.9a3.458,3.458,0,0,0-3.136,1.751,16.812,16.812,0,0,0-.635,1.872c-.258.9-.661,2.857-1.045,4.941C1558.537-339.042,1564.411-340.233,1570.468-340.448Z" transform="translate(-3.004)" fill="#c29c89" opacity="0.32" style="mix-blend-mode: multiply;isolation: isolate"/>
    <path id="Path_1255" data-name="Path 1255" d="M1551.716-268.911a12.847,12.847,0,0,1,7.524.176c5.16,1.836,9.57,1.317,15.089,1.371,4.6.044,9.206.452,13.815.357a60.826,60.826,0,0,0,15.23-2.512,61.974,61.974,0,0,1,11.214-1.593c4.747-.385,9.445-.653,14.118-.579.412-2.6,1.08-5.222,1.641-7.781-7.481-.361-15.275.713-22.743.634-8.582-.092-16.058,3.824-24.522,3.621-8.978-.215-17.72-2.566-26.8-1.786a42.063,42.063,0,0,0-7.144,1.27c.229,1.995.476,4.631.923,7.259C1550.594-268.628,1551.141-268.778,1551.716-268.911Z" transform="translate(-0.588 -49.922)" fill="#3d2d20"/>
    <path id="Path_1256" data-name="Path 1256" d="M1634.507-223.871c-.018-2.075-.936-4.117-1.474-6.226-3.513-.793-7.385.189-11.08.626-4.4.521-18.755-1.616-31.824.488-4.724.76-14.619,2.345-19.334,1.342-4.589-.975-9.124-1.362-13.836-1.9-.572-.065-1.158-.129-1.749-.192a19.139,19.139,0,0,0,.98,2.767c.795,1.738,3.1,2.879,5.619,2.756,9.185-.447,23.029.268,28.012.085,13.17-.483,27.9-.473,41.224-.023C1632.153-224.108,1633.433-224,1634.507-223.871Z" transform="translate(-4.911 -84.896)" fill="#3d2d20"/>
    <path id="Path_1257" data-name="Path 1257" d="M1811.58-309.294c9.049-9.135,6.281-20.988,4.084-31.649-.634-3.077-3.791-8.393-5.8-8.639-2.223-.005-4.035,2.584-4.907,4.383-1.811,3.739-1.06,8.6-2.243,12.2-1.811,5.516-.834,12.329,1.352,17.661.966,2.357,1.866,5.13,4.879,6.457A2.541,2.541,0,0,0,1811.58-309.294Z" transform="translate(-180.364 -0.083)" fill="#de9b70"/>
    <path id="Path_1258" data-name="Path 1258" d="M1813.736-308.217c.163-.2.316-.4.47-.6.929-1.2,2.184-2.333,2.729-3.653a19.9,19.9,0,0,0,.452-2.865c.252-.974.758-1.915,1.032-2.892.214-.762.444-1.521.647-2.282a6.805,6.805,0,0,0,.009-2.41c-.136-1.421-.194-2.843-.242-4.27-.023-.665-.2-1.306-.216-1.969a14.432,14.432,0,0,0-.113-1.851,27.589,27.589,0,0,0-.85-3.353c-.294-1.01-.917-1.955-1.161-2.978a8.149,8.149,0,0,0-.754-2.711,10.3,10.3,0,0,1-.708-1.084,12.156,12.156,0,0,0-1.455-2.512c-.365-.477-.989-1.455-2-1.381a2.725,2.725,0,0,0-2.25,1.643,12.43,12.43,0,0,0-1.683,3.309c-.2.839-.427,1.675-.557,2.517-.372,2.419-.939,4.8-1.5,7.2a12.984,12.984,0,0,0-.277,2.743c-.013.745-.147,1.464-.228,2.21-.074.68-.142,1.36-.166,2.038-.018.507-.053,1.014-.046,1.521a3.487,3.487,0,0,0,.3,1.063c.31.986.089,2.01.519,3a7.21,7.21,0,0,1,.494,1.948,10.62,10.62,0,0,0,.967,4.069c.539.934,1.154,1.845,1.674,2.784.389.7.839,2.127,2.134,2.314a2.729,2.729,0,0,0,1.713-.519A5.109,5.109,0,0,0,1813.736-308.217Z" transform="translate(-182.572 -3.321)" fill="#3d241a"/>
    <path id="Path_1259" data-name="Path 1259" d="M1815.542-305.345c.943-.256,1.447-1.147,1.866-1.7a14.075,14.075,0,0,0,1.9-2.834,8.466,8.466,0,0,0,.5-1.683c.3-1.523.679-3.027,1.108-4.542a15.479,15.479,0,0,0,.814-4.764,26.089,26.089,0,0,0-.226-4.064,14.769,14.769,0,0,1-.022-2.653,20,20,0,0,0-.238-2.929,7.9,7.9,0,0,0-.588-1.627c-.293-.722-.471-1.466-.728-2.2-.821-2.332-1.4-5.008-3.508-6.95a2.173,2.173,0,0,0-1.714-.709c-1.1.092-1.382.839-1.7,1.47a10.721,10.721,0,0,0-.786,2.183,9.791,9.791,0,0,1-.44,2.088,6.17,6.17,0,0,0-.752,1.836c-.108.689-.121,1.382-.291,2.067-.408,1.649-.777,3.32-1.023,4.984a28.3,28.3,0,0,0-.093,3.394c-.043,1.622-.078,3.235-.024,4.861a12.227,12.227,0,0,0,.7,4.268c.315.787.55,1.577.8,2.379a9.727,9.727,0,0,1,.5,2.6,7.534,7.534,0,0,0,1.195,2.931,2.611,2.611,0,0,0,2.22,1.656A2.062,2.062,0,0,0,1815.542-305.345Z" transform="translate(-185.914 -5.48)" fill="#160e0f"/>
    <path id="Path_1260" data-name="Path 1260" d="M1819.073-301.7a10,10,0,0,0,2.128-2.959c1.327-2.441,1.577-5.105,1.914-7.669.208-1.579.316-3.14.374-4.715a17.946,17.946,0,0,0-.081-2.435c-.213-2.113-.431-4.208-.794-6.319a20.173,20.173,0,0,0-1.548-4.239,10.162,10.162,0,0,0-1.673-3.111c-.27-.3-.476-.844-1.031-.95-1.424-.272-1.911,2.542-2.238,3.111a9.73,9.73,0,0,0-1.069,3.335c-.445,2.8-.3,5.6-.761,8.389a17.275,17.275,0,0,0-.295,3.395c.023.692.115,1.389.119,2.077a11.507,11.507,0,0,0,.034,2.17c.41,2.108.846,4.218,1.239,6.317a11.8,11.8,0,0,0,.39,1.211,3.788,3.788,0,0,0,.813,1.481c.344.41.3,1.019,1.006,1.271A1.525,1.525,0,0,0,1819.073-301.7Z" transform="translate(-189.064 -11.092)" fill="#e5a16f"/>
    <path id="Path_1261" data-name="Path 1261" d="M1824.211-296.657a19.638,19.638,0,0,0,1.948-6.712c.243-2.03.187-4.067.437-6.092a10.541,10.541,0,0,0,0-2.339c-.128-1.3-.211-2.611-.34-3.91a21.351,21.351,0,0,0-.861-4.226,12.632,12.632,0,0,0-1.261-3.231c-.284-.437-1.093-1.415-1.759-.66a1.965,1.965,0,0,0-.384.816,10.56,10.56,0,0,1-.55,1.108,14.355,14.355,0,0,0-.512,1.432,8.759,8.759,0,0,0-.169,3.461,38.142,38.142,0,0,1-.449,4.49,40.2,40.2,0,0,0,.062,4.743c.05,1.549.169,3.127.305,4.676.128,1.456-.148,2.927,0,4.373a4.111,4.111,0,0,0,.61,1.938c.261.4.668,1.362,1.441,1.428.838.071,1.238-.811,1.444-1.213Z" transform="translate(-193.516 -18.215)" fill="#e9af7e"/>
    <path id="Path_1262" data-name="Path 1262" d="M1827.112-295.685c.213-.725.28-1.465.474-2.2a9.253,9.253,0,0,0,.336-2.536,35.4,35.4,0,0,1,.253-4.4c.129-1.207.092-2.416.111-3.624a30.7,30.7,0,0,0-.49-3.174,13.293,13.293,0,0,0-.449-2.608c-.3-1-.245-2.358-1.182-3.2-.794-.714-1.557.535-1.678,1a8.688,8.688,0,0,0,.154,3.132,6.98,6.98,0,0,1-.451,2.533,11.393,11.393,0,0,0-.4,3.447c.014,1,.117,1.965.149,2.955a7.222,7.222,0,0,0,.247,1.44,12.761,12.761,0,0,1-.039,2.835c.014,1.018.076,2.035.037,3.053a6.388,6.388,0,0,0,.254,1.969,6.44,6.44,0,0,0,.345,1.476.8.8,0,0,0,1.171.317C1826.849-293.8,1826.9-294.949,1827.112-295.685Z" transform="translate(-196.037 -22.813)" fill="#c99369"/>
    <path id="Path_1263" data-name="Path 1263" d="M1739.235-319.817c-.708-.194-6.864.906-10.536,1.1-3.892.211-14.093,1.524-17.874,1.676,6.168.3,12.555-.775,18.858-.5a31.881,31.881,0,0,0,5.618-.346,14.481,14.481,0,0,1,3.548.2s.156.336.386.75A16.029,16.029,0,0,0,1739.235-319.817Z" transform="translate(-115.648 -21.248)" fill="#160e0f"/>
    <path id="Path_1264" data-name="Path 1264" d="M1751.519-258.714c-.316.317-.525.632-.856.7-.994.195-1.96-.245-3.223-.249-2.058-.007-9.558-.131-11.337-.027-2.1.123-4.519-.218-6.5.075,0,0,11.578,1.545,13.979,1.414a38.641,38.641,0,0,1,5.674.2,7.02,7.02,0,0,0,1.713.106S1751.344-258.058,1751.519-258.714Z" transform="translate(-129.008 -64.746)" fill="#160e0f"/>
    <path id="Path_1265" data-name="Path 1265" d="M1790.462-225.08c-.022.151-.536.518-.536.518-1.547.831-8,.207-9.3.38a28.808,28.808,0,0,0,5.53.3c1.4.024,2.82.14,4.178.131C1790.46-223.749,1790.469-224.717,1790.462-225.08Z" transform="translate(-165.317 -88.68)" fill="#160e0f"/>
    <path id="Path_1266" data-name="Path 1266" d="M1768.594-286.777a7.285,7.285,0,0,0-2.3.177,37.913,37.913,0,0,1-3.977.226,46.1,46.1,0,0,0-7.891.465s6.18.025,7.943.129c1.21.072,2.266.418,3.525.393.981-.02,1.679-.2,2.456-.145l.675.444A11.2,11.2,0,0,0,1768.594-286.777Z" transform="translate(-146.676 -44.744)" fill="#160e0f"/>
    <path id="Path_1267" data-name="Path 1267" d="M1769.359-339.048a7.077,7.077,0,0,1-.255-1.265c-1.733-.36-12.3.8-14.888.9a18.046,18.046,0,0,0-4.19.289c3.573.422,17.756-.786,18.78-.737A3.035,3.035,0,0,0,1769.359-339.048Z" transform="translate(-143.544 -6.63)" fill="#160e0f"/>
    <path id="Path_1268" data-name="Path 1268" d="M1829.792-288.085c1.038-4.889.605-9.784.435-14.717-.016-.466.306-2.635-.675-2.552-.688.058-.774,1.606-.839,2.06a35.994,35.994,0,0,0,.044,6.9,54.506,54.506,0,0,1-.036,5.891c-.042.724-.521,3.187.439,3.653C1829.836-287.216,1829.67-287.509,1829.792-288.085Z" transform="translate(-199.424 -31.554)" fill="#e9af7e"/>
    <path id="Path_1269" data-name="Path 1269" d="M1828.968-290.016a2.078,2.078,0,0,1,.626-1.565,5.756,5.756,0,0,1-.493,2.573c-.268.889.25,2.046.306,3a16.535,16.535,0,0,1-.958-1.413c.232,1.079-.692,2.246-.682,3.345.019-1.577-.661-3.128-.478-4.694a10.073,10.073,0,0,0-.44-4.726,13.457,13.457,0,0,1,1.172,2.08C1828.249-290.954,1828.936-290.47,1828.968-290.016Z" transform="translate(-198.212 -39.995)" fill="#160e0f"/>
    <path id="Path_1270" data-name="Path 1270" d="M1554.935-304.688c-1.347-.7-2.13-2.367-2.581-3.6a11.381,11.381,0,0,1,1.9-1.784c1.773-.4,4.328-.529,5.875-1.137-1.989-.841-4.8-.441-6.971-1.158a3.578,3.578,0,0,1-2.462-2.4c-.458-1.8-.716-3.892,1.933-4.456,1.96-.418,4.59.374,6.569.484a17.079,17.079,0,0,1-2.742-.8c-1.152-.476-1.551-1.274-2.356-2.058-1.469-1.431-3.812-1.87-3.853-3.9-.076-3.784,6.156-2.405,9.545-2.7-2.083-.72-4.331-.253-5.722-1.829-.559-.633-.641-1.235-1.35-1.826-.547-.456-1.716-1.046-1.818-1.7-.154-.989,2.169-2.8,3.3-3.2a24.057,24.057,0,0,1,7.081-1.38c-1.862-.536-4.709.017-6.306-.9-2.478-1.429,3.594-2.437,4.9-2.463a1.735,1.735,0,0,0-.149-.193c-2.118.1-3.973.183-5.428.236a3.434,3.434,0,0,0-3.1,1.755,16.67,16.67,0,0,0-.627,1.848,113.791,113.791,0,0,0-2.064,11.351,24.354,24.354,0,0,0-.006,6.159c.447,3.731.9,10.088,2.777,14.185.794,1.735,3.1,2.878,5.612,2.756.52-.025,1.055-.047,1.6-.065.266-.025.469-.044.578-.051C1557.99-304.207,1556.1-304.085,1554.935-304.688Z" transform="translate(0 -5.692)" fill="#3d2d20"/>
    <path id="Path_1271" data-name="Path 1271" d="M1628.119-332.107a165.543,165.543,0,0,0-28.392-.79c-4.47.248-8.5,1.43-12.811,1.878-3.365.35-8.094-.276-10.466,1.714,1.977.9,5.3.534,7.094,1.708-1.989,1.622-5.794,1.564-7.986,2.832,4.176,2.39,15.951.428,21.177-.3,5.346-.745,10.063-2.532,15.2-3.766C1610.894-334.091,1624.111-328.854,1628.119-332.107Z" transform="translate(-19.391 -11.765)" fill="#3d2d20"/>
    <path id="Path_1272" data-name="Path 1272" d="M1550.167-255.511c1-.063,1.995-.164,2.867-.254,4.96-.51,12.122.461,16.891-.884-3.535-.148-6.844-1.419-10.352-1.748-3.234-.3-6.5-.623-9.754-.781C1549.921-258.035,1550.028-256.788,1550.167-255.511Z" transform="translate(-1.075 -64.415)" fill="#885a3d" opacity="0.32" style="mix-blend-mode: multiply;isolation: isolate"/>
    <path id="Path_1273" data-name="Path 1273" d="M1580.24-342.866a9.933,9.933,0,0,0-2.1-.842c-7.077.382-13.442.7-16.665.8a3.455,3.455,0,0,0-3.134,1.751l-.008.018a89.177,89.177,0,0,1,11.11-.935C1573.159-342,1576.953-340.783,1580.24-342.866Z" transform="translate(-7.134 -4.263)" fill="#885a3d" opacity="0.32" style="mix-blend-mode: multiply;isolation: isolate"/>
  </g>
</svg>
